<svg version="1" xmlns="http://www.w3.org/2000/svg" width="346.667" height="346.667" viewBox="0 0 260.000000 260.000000"><path d="M116.5 11C66 18.8 33 62.7 33 121.9c0 45.4 21.2 82.2 56.4 98.1 13.6 6.2 31.5 9.5 43.5 7.9 6.2-.7 12.1-1.9 12.1-2.3 0 0-2.9-3.1-6.4-6.9-3.5-3.7-6.9-8-7.5-9.5-1.1-2.5-1.8-2.9-9.4-3.9-29-3.9-49.5-26.2-56.8-61.5-3-14.6-2.3-39.7 1.4-53.9 6.4-24.4 19-42 36.2-50.4 9.5-4.7 17.2-6.5 28-6.5 16.1 0 29.1 4.9 40.2 15.3 11.3 10.6 18 22.4 23.1 40.5 2.5 9.2 2.7 10.9 2.6 30.2 0 19-.2 21.2-2.7 30.5-1.5 5.5-4.5 13.7-6.6 18.2-2.3 4.7-3.6 8.5-3 8.8 1.7 1.1 8.6 11 11.3 16.3 1.4 2.9 2.8 5.2 3.1 5.2.2 0 2.9-3.2 6-7.2 22-28.1 28.4-75.2 15.8-115.2-10-31.8-34-55.1-64.5-62.7-9.5-2.3-29.9-3.3-39.3-1.9z"/><path d="M111.6 141.1c-1.4 1.7-2.6 3.5-2.6 4 0 1.5 6 13 9.3 17.9 2.8 4 3.1 5.2 2.9 10.5-.6 12.6 6.4 30.7 15.5 40.6 7.3 7.9 15.8 12 34.3 16.9 18 4.7 25.6 7.9 32.9 13.9l5.4 4.3-.7-5.8c-.4-3.3-1.9-11-3.3-17.3-7-31.8-20.4-53.1-38.6-61.1-6.5-2.9-23.1-5.4-29.8-4.6-9.6 1.2-9.6 1.4 2.1 13.3l10.5 10.7-11.5-10.8c-13-12.2-18.6-20.3-19.6-28.1-.7-4.9-1.9-7.5-3.4-7.5-.5 0-2 1.4-3.4 3.1zM216.2 236.6c-2.4 1.7-3 6.2-1 8.2 3.7 3.7 11.3-1.2 8.8-5.7-.9-1.7-3.9-4.1-5.2-4.1-.2 0-1.4.7-2.6 1.6zm6.8 4c0 1.3-3.5 2.5-4.4 1.6-1.4-1.4-.4-3 1.9-2.8 1.4 0 2.5.6 2.5 1.2z"/></svg>